<?xml version="1.0" encoding="utf-8"?>
<!-- Generator: Adobe Illustrator 27.1.0, SVG Export Plug-In . SVG Version: 6.00 Build 0)  -->
<svg version="1.1" xmlns="http://www.w3.org/2000/svg" xmlns:xlink="http://www.w3.org/1999/xlink" x="0px" y="0px"
	 viewBox="0 0 250 198.51" style="enable-background:new 0 0 250 198.51;" xml:space="preserve">
<style type="text/css">
	.st0{fill:#10B0E2;}
	.st1{fill:#A0DD52;}
	.st2{fill:#FFFFFF;}
	.st3{fill:none;stroke:#291F39;stroke-width:5.6693;stroke-linecap:round;stroke-miterlimit:10;}
	.st4{fill:none;stroke:#291F39;stroke-width:5.6693;stroke-linecap:round;stroke-linejoin:round;stroke-miterlimit:10;}
	.st5{fill:#FFFFFF;stroke:#291F39;stroke-width:5.6693;stroke-linecap:round;stroke-linejoin:round;stroke-miterlimit:10;}
	.st6{fill:#D8D8D8;}
	.st7{fill:#A0DD52;stroke:#291F39;stroke-width:3.0354;stroke-linecap:round;stroke-linejoin:round;stroke-miterlimit:10;}
</style>
<g id="Background">
</g>
<g id="Objects">
	<circle class="st0" cx="106.57" cy="85.01" r="48.74"/>
	<path class="st1" d="M155.59,90.74c0,0,2.2-35.22-19.81-35.22s-17.1,23.54-17.1,23.54S122.57,105.47,155.59,90.74z"/>
	<path class="st1" d="M101.15,36.82c0,0,6.28,17.13,23.57,3.46C124.72,40.28,115.29,34.31,101.15,36.82z"/>
	<path class="st1" d="M129.27,129.36c0,0-2.67-16.03,8.01-21.21s14.3,1.26,14.3,1.26S139.96,124.49,129.27,129.36z"/>
	<path class="st1" d="M110.53,106.01c-0.03-3.47-0.31-7.65-3.37-9.28c-2-1.07-4.43-0.57-6.65-0.1c-6.43,1.35-12.96,2.2-19.51,2.53
		c-1.62,0.08-3.5,0.03-4.53-1.23C75.7,97,75.65,95.7,75.66,94.5c0.04-3.93,0.46-7.86,1.27-11.7c0.69-3.31,1.71-6.66,3.84-9.29
		c2.13-2.63,5.58-4.41,8.9-3.75c3.54,0.71,5.97,3.83,8.78,6.09c1.58,1.27,3.87,2.31,5.54,1.16c1.74-1.2,1.48-3.81,1.02-5.88
		c-0.6-2.69-1.2-5.41-2.36-7.91c-2.27-4.88-6.61-8.89-7.44-14.21c-0.18-1.18-0.18-2.37-0.33-3.56c-0.32-2.45-1.38-4.95-3-6.9
		c-19.72,6.24-34.02,24.68-34.02,46.47c0,26.92,21.82,48.74,48.74,48.74c3.31,0,6.54-0.33,9.67-0.96c-0.98-2.96-2.31-5.81-3.28-8.78
		C111.08,118.23,110.58,112.09,110.53,106.01z"/>
	<path class="st2" d="M119.53,41.65c3.86,0,7.63,0.38,11.28,1.09c-7.14-4.1-15.41-6.46-24.24-6.46c-26.92,0-48.74,21.82-48.74,48.74
		c0,5.65,0.97,11.08,2.74,16.13c0-0.18-0.01-0.35-0.01-0.53C60.57,68.04,86.97,41.65,119.53,41.65z"/>
	<path class="st3" d="M177.03,71.51c-1.97,2.68-4.09,5.25-6.35,7.68c-6.72,7.24-15.16,14.04-25.04,16.14
		c-7.33,1.56-15.81-0.42-21.45-5.42c-2.41-2.13-4.31-4.82-5.53-7.8c-0.54-1.32-0.92-2.69-1.15-4.09
		c-1.59-9.73,4.75-18.87,14.17-21.78c0.25-0.08,0.5-0.15,0.75-0.22c7.27-1.95,14.89,1.75,18.2,8.51c3.3,6.72,5.1,14.3,4.95,22.33
		c-0.48,25.78-21.36,46.95-47.13,47.76c-28.1,0.88-51.07-22.06-50.24-50.15c0.77-26.05,22.35-47.08,48.41-47.22
		c8.14-0.04,15.82,1.92,22.58,5.42"/>
	<line class="st4" x1="190.85" y1="46.51" x2="198.48" y2="38.35"/>
	<path class="st5" d="M201.43,50.63l18.5,20.41l8.73-8.8l-9.85-27.3c0,0,13.39-12.79,8.05-17.14c-5.34-4.36-22.89,14.05-22.89,14.05
		l-38.59,7.1l-4.72,5.23l31.16,1.63l-10.76,13.42l-15.31,1.16l-7.49,8.86l19.18,1.32l6.25,8.41l6.35-2.84l-1.93-9.52L201.43,50.63z"
		/>
	<path class="st6" d="M207.63,38.57l18.67,26.07l2.37-2.39l-9.85-27.3c0,0,13.39-12.79,8.05-17.14c-0.86-0.7-2.03-0.81-3.39-0.5
		C220.87,24.38,215.95,34.08,207.63,38.57z"/>
	<polygon class="st6" points="177.46,70.57 183.72,78.97 190.06,76.13 188.13,66.62 189.24,65.28 161.79,65.1 158.28,69.25 	"/>
	<path class="st4" d="M201.43,50.63l18.5,20.41l8.73-8.8l-9.85-27.3c0,0,13.39-12.79,8.05-17.14c-5.34-4.36-22.89,14.05-22.89,14.05
		l-38.59,7.1l-4.72,5.23l31.16,1.63l-10.76,13.42l-15.31,1.16l-7.49,8.86l19.18,1.32l6.25,8.41l6.35-2.84l-1.93-9.52L201.43,50.63z"
		/>
	<line class="st3" x1="212.85" y1="78.12" x2="202.85" y2="91.66"/>
	<line class="st3" x1="191.08" y1="85.77" x2="183.43" y2="95.78"/>
	<line class="st3" x1="157.54" y1="33.11" x2="149.3" y2="44.58"/>
	<path class="st4" d="M91.68,40.97c2.14,2.21,4.43,4.86,4.08,7.91c-0.1,0.85-0.4,1.68-0.43,2.53c-0.13,4.07,5.5,5.92,6.78,9.78
		c0.74,2.23-0.14,4.71,0.33,7.01c0.31,1.52,1.18,2.85,1.85,4.24c0.68,1.39,1.18,3,0.7,4.47c-0.48,1.47-2.3,2.56-3.64,1.78
		c-0.34-0.2-0.62-0.5-0.89-0.79c-1.82-1.96-3.63-3.91-5.45-5.87c-0.95-1.02-1.97-2.09-3.33-2.43c-2.09-0.53-4.2,0.85-6.36,0.82
		c-0.87-0.01-1.79-0.25-2.59,0.09c-0.61,0.26-1.04,0.81-1.42,1.35c-4.19,5.9-6.55,13.09-6.67,20.33c-0.03,1.83,0.11,3.76,1.1,5.3
		c1.35,2.08,4.01,2.98,6.49,2.92c2.48-0.07,4.85-0.93,7.22-1.68c4.64-1.48,9.41-2.56,14.23-3.22c2.21-0.3,4.87-0.33,6.16,1.49
		c0.49,0.68,0.68,1.53,0.84,2.35c0.96,4.99,0.98,10.15,0.06,15.15c-0.19,1.03-0.42,2.06-0.33,3.1c0.11,1.27,0.7,2.45,1.27,3.59
		c2.09,4.16,3.41,7.35,5.5,11.51"/>
	<path class="st4" d="M150.42,107.02c-2.07,0.57-4.24-0.23-6.37-0.45c-4.72-0.49-9.6,2.18-11.74,6.41c-0.76,1.5-1.19,3.13-1.61,4.75
		c-0.91,3.46-1.82,7.03-1.39,10.58"/>
	<path class="st4" d="M101.77,37.79c0.85,5.03,6,8.92,11.07,8.38c3.79-0.41,6.99-2.88,9.91-5.32"/>
	<g>
		<path class="st2" d="M15.73,152.61h18.62v5.6h-6.1v24.26h-6.56v-24.26h-5.95V152.61z"/>
		<path class="st2" d="M38.86,152.61h9.39c1.82,0,3.22,0.08,4.19,0.25c0.97,0.17,1.95,0.62,2.94,1.36s1.77,1.74,2.33,3.02
			s0.84,2.71,0.84,4.3c0,3.73-1.4,6.36-4.2,7.88l5.49,13.06H52.7l-3.99-11.81h-3.28v11.81h-6.56V152.61z M45.43,157.45v8.38h2.89
			c2.57,0,3.85-1.44,3.85-4.31c0-0.99-0.19-1.8-0.57-2.44c-0.38-0.63-0.82-1.06-1.32-1.29c-0.5-0.23-1.24-0.34-2.22-0.34H45.43z"/>
		<path class="st2" d="M70.79,152.61h6.61l8.53,29.86h-6.71l-1.49-6.17h-8.41l-1.46,6.17h-6.03L70.79,152.61z M76.5,171.19
			l-3.02-12.24l-2.9,12.24H76.5z"/>
		<path class="st2" d="M86.73,152.61h6.89l4.59,22.77l4.75-22.77h5.63l-7.33,30.02l-7.35-0.15L86.73,152.61z"/>
		<path class="st2" d="M113.01,152.61h18.16v5.12h-11.6v6.94h9.01v5.12h-9.01v7.35h11.6v5.34h-18.16V152.61z"/>
		<path class="st2" d="M136.63,152.61h6.56v24.26h9.63v5.6h-16.19V152.61z"/>
	</g>
	<g>
		<g>
			<path class="st7" d="M166.18,152.47h6.43v19.42c0,2.47-0.18,4.4-0.55,5.78c-0.36,1.38-1.12,2.48-2.26,3.29
				c-1.14,0.81-2.84,1.22-5.08,1.22c-0.97,0-2.28-0.15-3.92-0.45v-5.38c1.03,0.2,1.89,0.3,2.59,0.3c1.13,0,1.88-0.3,2.24-0.91
				c0.36-0.61,0.55-1.89,0.55-3.85V152.47z"/>
			<path class="st7" d="M198.18,167.08c0,10.06-3.54,15.09-10.61,15.09c-3.51,0-6.17-1.28-7.95-3.85s-2.68-6.31-2.68-11.24
				c0-10.04,3.54-15.07,10.61-15.07c3.46,0,6.09,1.26,7.91,3.77S198.18,162.07,198.18,167.08z M191.4,167.08
				c0-3.94-0.31-6.57-0.92-7.88s-1.59-1.96-2.94-1.96c-1.33,0-2.3,0.66-2.92,1.97s-0.92,3.94-0.92,7.87c0,3.86,0.3,6.46,0.91,7.82
				s1.58,2.04,2.93,2.04c1.33,0,2.3-0.65,2.92-1.95C191.09,173.69,191.4,171.06,191.4,167.08z"/>
			<path class="st7" d="M198.3,152.47h7.08l4.13,10.66l4.42-10.66h6.28l-8.12,16.89v12.37h-6.43v-12.37L198.3,152.47z"/>
		</g>
	</g>
</g>
</svg>
